<?xml version="1.0" ?><svg fill="none" height="24" viewBox="0 0 24 24" width="24" xmlns="http://www.w3.org/2000/svg"><path clip-rule="evenodd" d="M8.31986 2.86345L10.4641 4.91778L10.4801 4.93348C11.0662 5.52077 11.307 6.33501 11.307 7.0687C11.307 7.80239 11.0662 8.61659 10.4802 9.20388L9.43689 10.2495C9.6825 11.11 10.2679 12.0591 11.0829 12.8813C11.9001 13.7056 12.8489 14.3023 13.7247 14.5515L14.7674 13.5066C15.3537 12.919 16.1672 12.6771 16.901 12.6771C17.6347 12.6771 18.4483 12.919 19.0346 13.5065C19.0346 13.5065 19.0345 13.5065 19.0346 13.5065L21.1732 15.6498C21.7593 16.2371 22 17.0513 22 17.785C22 18.5187 21.7592 19.3329 21.1732 19.9202C19.5784 21.5184 17.498 22 16.5444 22C15.0682 22 13.735 21.9092 12.2001 21.1911C10.7036 20.4911 9.09001 19.2307 6.92613 17.0621C4.73292 14.8641 3.48625 13.0667 2.79662 11.4874C2.09751 9.8863 2 8.57408 2 7.42598C2 6.62283 2.10093 5.85406 2.43709 5.06808C2.76988 4.28998 3.3045 3.56191 4.07447 2.79026C4.67733 2.1861 5.50841 1.97426 6.24022 2.00253C6.96926 2.03069 7.75309 2.30086 8.31986 2.86345ZM6.16302 4.00104C5.83204 3.98825 5.60033 4.09259 5.49022 4.20294C4.83446 4.86013 4.47791 5.38237 4.27596 5.85456C4.07738 6.31887 4 6.80037 4 7.42598C4 8.42121 4.0809 9.43064 4.6295 10.687C5.18757 11.9651 6.25791 13.5609 8.34189 15.6495C10.4552 17.7674 11.871 18.8292 13.0476 19.3796C14.1857 19.912 15.169 20 16.5444 20C17.0513 20 18.5936 19.6738 19.7574 18.5075C19.8843 18.3803 20 18.1229 20 17.7849C20 17.447 19.8843 17.1896 19.7575 17.0625L17.6188 14.9192C17.4923 14.7924 17.2365 14.6771 16.901 14.6771C16.5654 14.6771 16.3097 14.7924 16.1831 14.9192L14.7574 16.3481C14.5349 16.571 14.2205 16.6761 13.9087 16.6318C12.3463 16.4096 10.8211 15.458 9.66259 14.2894C8.5044 13.121 7.57453 11.5964 7.35659 10.0675C7.31224 9.75638 7.41673 9.44251 7.63871 9.22004L9.06444 7.79121C9.19129 7.66408 9.30698 7.40663 9.30698 7.06867C9.30699 6.73581 9.19477 6.48111 9.07022 6.35209L6.9291 4.30078L6.91307 4.28506C6.76753 4.13923 6.49296 4.01378 6.16302 4.00104Z" fill="black" fill-rule="evenodd"/></svg>