<?xml version="1.0" ?><svg id="ART" viewBox="0 0 150 150" xmlns="http://www.w3.org/2000/svg"><defs><style>.cls-1,.cls-2{fill:#444;}.cls-1,.cls-4,.cls-5,.cls-6,.cls-8{stroke:#000;stroke-miterlimit:10;}.cls-1{stroke-width:4px;}.cls-3{fill:#bcbcbc;}.cls-4,.cls-6{fill:#333;}.cls-4,.cls-5,.cls-6,.cls-8{stroke-width:2px;}.cls-5{fill:none;}.cls-6{stroke-linecap:round;}.cls-7{fill:#7f7f7f;}.cls-8{fill:#fff797;}</style></defs><title/><path class="cls-1" d="M145,87.68c0,30.91-47.38,56-70,56s-70-25.05-70-56a45.47,45.47,0,0,1,.9-9C5.66,49.25,25,13,32.09,6.8c4-3.53,23,15.42,26.88,26.4l1.61-.29S70.06,28.68,75,28.68,89.36,32.9,89.36,32.9c.56.09,1.13.19,1.68.3,3.92-11,22.84-29.93,26.88-26.4,7.05,6.16,26.45,42.51,26.19,72A44.63,44.63,0,0,1,145,87.68Z" data-name="&lt;Path&gt;" id="_Path_"/><path class="cls-2" d="M134.12,110.19C119.73,128.48,91.25,141.64,75,141.64s-44.73-13.16-59.12-31.45C22.5,92.91,46.46,80.11,75,80.11S127.5,92.91,134.12,110.19Z"/><path class="cls-3" d="M134.12,110.19C119.73,128.48,91.25,141.64,75,141.64s-44.73-13.16-59.12-31.45C22.5,92.91,46.46,80.11,75,80.11S127.5,92.91,134.12,110.19Z"/><circle cx="58.78" cy="68.53" r="4.47"/><path class="cls-4" d="M75,102.35c-2.32,0-11.41-11.89-10.66-13.74s3.8-2.17,10.66-2.17,9.92.31,10.68,2.17S77.32,102.35,75,102.35Z"/><path class="cls-5" d="M88.73,114.57C87.83,106.55,75,103,75,103s-12.82,3.53-13.72,11.55"/><line class="cls-6" x1="97.62" x2="125.71" y1="94.4" y2="86.16"/><line class="cls-6" x1="99.62" x2="125.71" y1="101.04" y2="97.28"/><line class="cls-6" x1="52.39" x2="24.3" y1="94.4" y2="86.16"/><line class="cls-6" x1="50.39" x2="24.3" y1="101.04" y2="97.28"/><line class="cls-6" x1="97.62" x2="125.71" y1="107.68" y2="109.44"/><line class="cls-6" x1="52.39" x2="24.3" y1="107.68" y2="109.44"/><path class="cls-7" d="M129.09,41.36c-11.24-4.81-24.6-6.57-30.32-7.13,3.6-7.38,11.93-16.55,16-19.31C120,21.59,126.14,33.7,129.09,41.36Z"/><path class="cls-7" d="M20.91,41.36c3-7.66,9.13-19.77,14.36-26.44,4,2.76,12.36,11.93,16,19.31C45.51,34.79,32.14,36.55,20.91,41.36Z"/><path class="cls-8" d="M101.82,68.56c0,4.71-6.61,8.53-11.32,8.53A8.53,8.53,0,0,1,82,68.56c0-4.71,3.82-7.23,8.53-7.23S101.82,63.84,101.82,68.56Z"/><circle cx="89.65" cy="68.56" r="4.31"/><path class="cls-8" d="M48.18,68.56c0,4.71,6.61,8.53,11.32,8.53A8.53,8.53,0,0,0,68,68.56c0-4.71-3.82-7.23-8.53-7.23S48.18,63.84,48.18,68.56Z"/><circle cx="60.35" cy="68.56" r="4.31"/></svg>